<?xml version="1.0" encoding="UTF-8"?>
<svg id="Layer_2" data-name="Layer 2" xmlns="http://www.w3.org/2000/svg" viewBox="0 0 1381.37 1385.32">
  <defs>
    <style>
      .cls-1 {
        fill: #0052fe;
      }

      .cls-2 {
        fill: #fefefe;
      }
    </style>
  </defs>
  <g id="Layer_1-2" data-name="Layer 1">
    <path class="cls-1" d="M657.27.57c440.51-17.43,786.18,369.98,714.7,806.14-54.41,332-335.19,570.7-670.7,578.42C343.91,1393.36,49.04,1132.45,5.39,779.75-44.05,380.15,252.32,16.59,657.27.57ZM1167.4,586.64c-46.28-204.12-222.04-359.59-432.17-374.7-320.74-23.07-573.41,267.93-503.73,582.58,74.14,334.8,466.42,482.19,746.34,284.62,96.64-68.21,163.82-172.11,189.56-287.62l-222.19-.05c-38.8,93.17-132.23,161.06-233.93,164.95-167.09,6.39-298.27-137.17-276.35-303.27,14.74-111.65,103.21-202.56,212.81-224.91,109.34-22.29,233.74,33.34,283.68,134.07,1.92,3.87,8.43,21.95,10.62,23.02l225.37,1.32Z"/>
    <path class="cls-2" d="M1167.4,586.64l-225.37-1.32c-2.19-1.06-8.7-19.14-10.62-23.02-49.94-100.73-174.34-156.36-283.68-134.07-109.6,22.35-198.07,113.26-212.81,224.91-21.92,166.1,109.25,309.65,276.35,303.27,101.7-3.89,195.13-71.77,233.93-164.95l222.19.05c-25.73,115.51-92.92,219.41-189.56,287.62-279.92,197.57-672.2,50.18-746.34-284.62C161.83,479.87,414.49,188.87,735.23,211.94c210.13,15.12,385.89,170.58,432.17,374.7Z"/>
  </g>
</svg>